<?xml version="1.0" encoding="UTF-8"?>
<svg width="60px" height="60px" viewBox="0 0 60 60" version="1.1" xmlns="http://www.w3.org/2000/svg" xmlns:xlink="http://www.w3.org/1999/xlink">
    <!-- Generator: Sketch 48.2 (47327) - http://www.bohemiancoding.com/sketch -->
    <title>Group 2</title>
    <desc>Created with Sketch.</desc>
    <defs></defs>
    <g id="gr-desktop" stroke="none" stroke-width="1" fill="none" fill-rule="evenodd" transform="translate(-701.000000, -762.000000)">
        <g id="Group-2" transform="translate(701.000000, 762.000000)">
            <circle id="Oval-2" fill="#139377" cx="30" cy="30" r="30"></circle>
            <path d="M35,33.2411161 C35,32.1292631 34.6994685,31.1905557 34.0998164,30.424994 C33.5001644,29.6594324 32.5520086,29.0097782 31.2553492,28.4788934 L29.6623911,27.8177916 C28.5040045,27.3355593 27.9241056,26.6987837 27.9241056,25.9088958 C27.9241056,25.3365132 28.1456242,24.8600048 28.5872503,24.4822323 C29.0288764,24.097305 29.5833782,23.9055569 30.2521666,23.9055569 C30.7967918,23.9055569 31.2412398,24.0171715 31.5869215,24.2404007 C31.7534132,24.3405676 31.9255486,24.4965419 32.1019168,24.7097544 C32.4461877,25.1275936 33.0204427,25.2663964 33.4818221,24.9873599 L33.6102182,24.9115192 C34.1562543,24.5823992 34.3142802,23.8211305 33.9051059,23.3274505 C33.1149761,22.3744336 32.1414233,21.8378249 31.0027899,21.673265 L31.0027899,19.015979 C31.0027899,18.4550441 30.554109,18 29.9996073,18 C29.4451055,18 28.9978356,18.4550441 28.9978356,19.015979 L28.9978356,21.7505366 C28.1837197,21.933699 27.4613153,22.2842833 26.8489648,22.8352015 C25.9318498,23.6537086 25.4732924,24.6711185 25.4732924,25.8874314 C25.4732924,27.6918674 26.5653646,29.0627236 28.752331,30 L30.293084,30.6496542 C30.6937927,30.8256618 31.0380635,31.0088242 31.3273075,31.2005724 C31.6179624,31.3937515 31.8535903,31.5998092 32.0356024,31.8201765 C32.2190254,32.0405438 32.3544762,32.2823754 32.4405439,32.5442404 C32.5266116,32.8061054 32.56894,33.0937276 32.56894,33.409969 C32.56894,34.1927021 32.3206135,34.8394944 31.8239605,35.3503458 C31.3273075,35.8611972 30.7036693,36.1159075 29.9516351,36.1159075 C29.0006575,36.1159075 28.2754312,35.7667541 27.7801891,35.0670165 C27.6334508,34.8738373 27.5092875,34.5962318 27.4105213,34.2356308 C27.235564,33.6088719 26.6006383,33.2282375 25.9741782,33.3684713 C25.2799928,33.5244455 24.8341338,34.2528023 25.0584742,34.9367994 C25.353362,35.8383019 25.8090975,36.5781064 26.42427,37.1533508 C27.1325649,37.8058669 27.993242,38.1936561 28.9978356,38.3353208 L28.9978356,40.984021 C28.9978356,41.5449559 29.4451055,42 29.9996073,42 C30.554109,42 31.0027899,41.5449559 31.0027899,40.984021 L31.0027899,38.2838063 C31.9692879,38.0906272 32.8144446,37.6455998 33.5312052,36.9344145 C34.5104017,35.9613642 35,34.7321727 35,33.2411161" id="Page-1" fill="#FFFFFF"></path>
        </g>
    </g>
</svg>